<?xml version="1.0" encoding="utf-8"?>
<!-- Generator: Adobe Illustrator 28.0.0, SVG Export Plug-In . SVG Version: 6.00 Build 0)  -->
<svg version="1.1" id="Capa_1" xmlns="http://www.w3.org/2000/svg" xmlns:xlink="http://www.w3.org/1999/xlink" x="0px" y="0px"
	width="20" height="20" viewBox="0 0 20 20" style="enable-background:new 0 0 20 20;" xml:space="preserve">
<style type="text/css">
	.st0{fill:#FFFFFF;}
</style>
<g>
	<path class="st0" d="M2,9.99C1.99,5.57,5.57,2,10.02,2C14.42,2,18,5.57,18,9.99c0,4.43-3.57,8.01-8,8.01C5.56,18,2.01,14.44,2,9.99
		z M3.77,14.13c0.21,0.27,0.39,0.51,0.57,0.74c0.11,0.13,0.21,0.26,0.35,0.36c0.11,0.08,0.26,0.15,0.39,0.14
		c2.08-0.11,3.9,0.5,5.42,1.95c0.07,0.07,0.22,0.09,0.33,0.08c1.63-0.16,3.03-0.84,4.23-1.93c0.69-0.62,1.23-1.36,1.63-2.21
		c-0.49,0.18-0.96,0.34-1.42,0.51c-0.05,0.02-0.09,0.05-0.12,0.09c-0.57,0.5-1.25,0.53-1.88,0.24c-0.48-0.23-0.95-0.26-1.44-0.26
		c-0.2,0-0.41-0.01-0.61-0.04c-1.29-0.2-2.58-0.44-3.88-0.6C6.05,13.02,4.83,13.21,3.77,14.13z M2.7,8.17
		c0.04,0.02,0.08,0.05,0.12,0.07c0.1-0.07,0.21-0.15,0.31-0.22C3.99,7.4,4.95,7.05,6.02,7.17c0.67,0.08,1.34,0.23,1.98,0.45
		c1.41,0.49,2.83,0.81,4.34,0.56c1.55-0.26,2.9-0.92,4.07-2.07c-0.46-0.56-0.91-1.1-1.37-1.67c-0.09,0.1-0.13,0.13-0.16,0.17
		C14,5.62,12.88,6.11,11.56,6.19c-1.55,0.1-3.07-0.22-4.6-0.36c-1-0.09-2-0.14-2.99,0.13C3.84,6,3.66,6.08,3.61,6.19
		C3.29,6.84,3,7.51,2.7,8.17z M17.51,9.69c-0.48,0.3-0.83,0.54-1.21,0.75c-1.82,1.01-3.76,1.52-5.84,1.21
		c-0.93-0.14-1.85-0.4-2.76-0.67c-1.75-0.5-3.33-0.33-4.64,1.05c-0.07,0.07-0.15,0.2-0.13,0.26c0.12,0.37,0.27,0.73,0.4,1.05
		c0.52-0.25,0.96-0.52,1.43-0.69c1.2-0.45,2.43-0.33,3.65-0.11c1.56,0.28,3.1,0.56,4.7,0.28c0.52-0.09,1.1-0.11,1.6,0.02
		c0.45,0.12,0.81,0.05,1.16-0.14c0.34-0.18,0.65-0.42,0.95-0.65c0.17-0.13,0.4-0.29,0.43-0.47C17.38,11.01,17.42,10.4,17.51,9.69z
		 M4.46,5.01c0.15,0,0.23,0.01,0.3,0c1.25-0.15,2.49,0.06,3.72,0.22c1.15,0.15,2.3,0.3,3.46,0.09c0.95-0.17,1.8-0.56,2.42-1.34
		c-0.23-0.25-0.43-0.24-0.73-0.14c-1.79,0.6-3.52,0.43-5.17-0.48C8.25,3.24,8.07,3.05,7.84,2.87C6.58,3.25,5.46,3.94,4.46,5.01z
		 M16.78,6.88c-0.22,0.17-0.39,0.33-0.57,0.46c-2.39,1.72-4.96,2.22-7.78,1.18C7.47,8.16,6.5,7.82,5.44,7.95
		C4.91,8.01,4.42,8.17,3.98,8.46c0.34-0.02,0.66-0.09,0.99-0.12C5.98,8.25,6.89,8.61,7.8,8.98c0.89,0.37,1.8,0.67,2.78,0.68
		C12.94,9.69,15,8.7,17.13,7.83C17.01,7.5,16.9,7.21,16.78,6.88z M8.8,2.66c1.36,0.74,2.7,0.92,4.11,0.54
		C11.63,2.62,10.29,2.41,8.8,2.66z"/>
</g>
</svg>
