<?xml version="1.0" encoding="utf-8"?>
<!-- Generator: Adobe Illustrator 28.0.0, SVG Export Plug-In . SVG Version: 6.00 Build 0)  -->
<svg version="1.1" id="Capa_1" xmlns="http://www.w3.org/2000/svg" xmlns:xlink="http://www.w3.org/1999/xlink" x="0px" y="0px"
	width="20" height="20" viewBox="0 0 20 20" style="enable-background:new 0 0 20 20;" xml:space="preserve">
<style type="text/css">
	.st0{fill:#FFFFFF;}
</style>
<path class="st0" d="M5.95,3.34c-0.29,0.44-0.6,0.88-0.87,1.34C4.57,5.57,4.22,6.52,4.23,7.56c0,1.48,0.59,2.68,1.84,3.5
	c0.45,0.3,0.97,0.43,1.51,0.27C8,11.2,8.32,10.95,8.53,10.57c0.53-0.98,0.55-2,0.22-3.04c-0.19-0.6-0.43-1.18-0.94-1.59
	C7.55,5.73,7.26,5.56,6.96,5.37c0.02-0.02,0.05-0.06,0.08-0.1C7.29,5,7.53,4.74,7.76,4.48C7.84,4.38,7.9,4.38,8,4.44
	c0.42,0.25,0.78,0.56,1.07,0.94c0.05,0.06,0.1,0.13,0.15,0.19c0.09-0.33-0.16-1.06-0.66-1.94C9.02,3.09,9.5,2.55,9.98,2
	c0.48,0.54,0.94,1.07,1.42,1.61c-0.37,0.6-0.64,1.23-0.69,1.96c0.22-0.23,0.42-0.47,0.65-0.67c0.22-0.2,0.48-0.36,0.73-0.55
	C12.41,4.7,12.71,5.04,13,5.37c-0.01,0.02-0.02,0.03-0.02,0.04c-0.94,0.43-1.5,1.16-1.76,2.15c-0.22,0.85-0.29,1.7,0.01,2.55
	c0.11,0.33,0.27,0.63,0.53,0.86c0.52,0.47,1.12,0.55,1.76,0.29c0.84-0.34,1.37-0.99,1.77-1.77c0.7-1.39,0.65-2.78,0.01-4.17
	c-0.33-0.72-0.77-1.36-1.33-2c0.08,0.03,0.12,0.04,0.15,0.06c0.99,0.71,1.9,1.49,2.55,2.53c0.63,1,0.98,2.09,1.1,3.25
	c0.23,2.18-0.29,4.18-1.6,5.94c-1.07,1.44-2.52,2.32-4.27,2.7c-1.67,0.36-3.31,0.26-4.89-0.41c-1.66-0.71-2.93-1.86-3.81-3.44
	c-0.76-1.36-1.09-2.83-0.99-4.38c0.14-2.01,0.94-3.72,2.38-5.12c0.4-0.39,0.87-0.71,1.3-1.07C5.9,3.36,5.93,3.35,5.95,3.34z"/>
</svg>
