<?xml version="1.0" encoding="utf-8"?>
<!-- Generator: Adobe Illustrator 28.0.0, SVG Export Plug-In . SVG Version: 6.00 Build 0)  -->
<svg version="1.1" id="Capa_1" xmlns="http://www.w3.org/2000/svg" xmlns:xlink="http://www.w3.org/1999/xlink" x="0px" y="0px"
	width="20" height="20" viewBox="0 0 20 20" style="enable-background:new 0 0 20 20;" xml:space="preserve">
<style type="text/css">
	.st0{fill:#FFFFFF;}
</style>
<g>
	<path class="st0" d="M11.32,7.25c0.38-0.69,0.95-1.15,1.72-1.41c-0.46-0.07-1.12,0.22-1.58,0.69c-0.42,0.43-0.68,0.96-0.91,1.53
		c-0.04-0.25-0.07-0.47-0.1-0.69c-0.01,0-0.03-0.01-0.04-0.01c-0.04,0.08-0.1,0.15-0.12,0.23c-0.08,0.33-0.15,0.67-0.22,1
		C10.05,8.65,10.02,8.69,10,8.73C9.98,8.69,9.94,8.66,9.93,8.61C9.86,8.29,9.8,7.97,9.72,7.65C9.7,7.55,9.64,7.47,9.6,7.38
		c-0.02,0-0.03,0-0.05,0C9.52,7.6,9.49,7.82,9.45,8.05C9.35,7.82,9.25,7.6,9.15,7.39c-0.22-0.44-0.5-0.84-0.9-1.14
		C7.87,5.96,7.44,5.84,6.93,5.82c1.08,0.56,1.54,0.94,1.73,1.41c-0.3-0.11-0.61-0.24-0.94-0.33C7.26,6.79,6.8,6.78,6.34,6.92
		C5.79,7.1,5.47,7.56,5.52,8.09C6.25,7.33,8,7.37,8.32,8.16C8.1,8.11,7.89,8.05,7.67,8.02C7.04,7.93,6.51,8.15,6.06,8.57
		c-0.4,0.37-0.68,0.83-0.95,1.3c-0.03,0.06-0.06,0.11-0.13,0.16c-0.01-0.15-0.03-0.3-0.03-0.45C4.96,7.5,5.37,5.52,6.43,3.7
		C6.92,2.86,7.6,2.19,8.51,1.8c1.43-0.6,2.74-0.34,3.93,0.61c0.9,0.72,1.45,1.69,1.83,2.77c0.46,1.29,0.73,2.62,0.77,3.99
		c0.01,0.29-0.01,0.57-0.02,0.86c-0.01,0-0.03,0-0.04,0.01c-0.08-0.13-0.14-0.27-0.23-0.39c-0.25-0.35-0.48-0.72-0.78-1.03
		c-0.58-0.6-1.29-0.76-2.1-0.5c-0.07,0.02-0.13,0.04-0.24,0.07c0.22-0.38,0.53-0.55,0.9-0.61c0.72-0.11,1.38,0.04,1.93,0.54
		c0.08-0.56-0.32-1.08-0.95-1.23c-0.72-0.16-1.39-0.02-2.04,0.31c-0.05,0.02-0.09,0.05-0.14,0.07C11.34,7.27,11.33,7.26,11.32,7.25z
		"/>
	<path class="st0" d="M14.42,11.74c-0.04,0.82-0.29,1.56-0.66,2.27c-0.33,0.64-0.6,1.31-0.66,2.04c-0.12-0.38-0.15-0.77-0.11-1.17
		c0.06-0.68,0.32-1.31,0.5-1.97c0.31-1.15,0.39-2.31,0.05-3.47c-0.03-0.11-0.07-0.22-0.12-0.33c-0.04-0.1-0.09-0.2-0.14-0.31
		c1.12,0.56,1.81,2.33,1.39,3.65C14.58,12.19,14.5,11.97,14.42,11.74z"/>
	<path class="st0" d="M6.89,16.05c-0.07-0.84-0.42-1.59-0.79-2.33c-0.34-0.69-0.4-0.93-0.53-1.98c-0.08,0.22-0.16,0.45-0.24,0.68
		c-0.41-1.16-0.01-2.6,1.36-3.64C6.6,9.06,6.49,9.31,6.42,9.58c-0.32,1.24-0.19,2.46,0.18,3.68c0.16,0.53,0.29,1.08,0.4,1.63
		C7.07,15.27,7.01,15.66,6.89,16.05z"/>
	<path class="st0" d="M9.52,14.03c0.32,0,0.65,0,0.98,0c0,0.26,0.01,0.51,0,0.77c-0.01,0.22,0.02,0.41,0.14,0.6
		c0.23,0.37,0.21,0.78,0.12,1.18c-0.03,0.15-0.08,0.29-0.16,0.44c-0.11-0.39-0.22-0.79-0.34-1.21c-0.56,0.92-0.35,1.81,0.04,2.72
		c-0.33-0.11-0.53-0.3-0.68-0.55c-0.25-0.44-0.35-0.92-0.27-1.4c0.14-0.83,0.15-1.65,0.15-2.48C9.5,14.06,9.51,14.05,9.52,14.03z"/>
	<path class="st0" d="M10.92,11.63c0.65-0.42,1.27-0.26,1.57,0.28c0.27,0.5,0.33,1.04,0.29,1.6c-0.04,0.61-0.3,1.14-0.57,1.68
		c-0.22,0.43-0.42,0.87-0.59,1.32c-0.08,0.22-0.08,0.47-0.15,0.72c-0.04-0.2-0.1-0.39-0.12-0.59c-0.04-0.38,0.06-0.75,0.16-1.11
		c0.15-0.54,0.34-1.07,0.34-1.64c0-0.3,0.03-0.57,0.22-0.84c0.22-0.3,0.22-0.66,0-0.98c-0.23-0.35-0.58-0.46-0.98-0.45
		C11.04,11.61,10.99,11.62,10.92,11.63z"/>
	<path class="st0" d="M8.13,10.67c0.06-0.17,0.11-0.33,0.17-0.51c-0.51,0-0.98,0-1.45,0C6.99,9.28,7.89,8.49,8.7,8.55
		c0.33,0.03,0.6,0.18,0.74,0.5c0.14,0.32,0.03,0.6-0.19,0.84c-0.09,0.1-0.2,0.18-0.31,0.26C8.67,10.33,8.4,10.5,8.13,10.67z"/>
	<path class="st0" d="M13.16,10.16c-0.49,0-0.95,0-1.41,0c-0.04,0.15-0.04,0.15,0.15,0.54c-0.38-0.26-0.74-0.47-1.06-0.73
		c-0.28-0.22-0.42-0.53-0.3-0.9c0.1-0.31,0.43-0.52,0.82-0.54c0.27-0.01,0.52,0.05,0.74,0.18C12.66,9.06,12.95,9.57,13.16,10.16z"/>
	<path class="st0" d="M8.47,17.3c0.03-0.78-0.33-1.43-0.7-2.08c-0.37-0.67-0.62-1.38-0.56-2.16c0.02-0.26,0.06-0.52,0.15-0.76
		c0.21-0.58,0.7-0.84,1.31-0.73c0.12,0.02,0.24,0.06,0.38,0.1c-0.19,0.04-0.36,0.05-0.52,0.1c-0.73,0.24-0.95,0.98-0.47,1.58
		c0.05,0.06,0.08,0.16,0.07,0.24c-0.07,0.56-0.02,1.1,0.21,1.62c0.22,0.49,0.37,1,0.3,1.54c-0.03,0.18-0.08,0.36-0.12,0.54
		C8.5,17.3,8.48,17.3,8.47,17.3z"/>
	<path class="st0" d="M10.09,12.51c0.36-0.01,0.7-0.02,1.03-0.02c0.22,0,0.28-0.08,0.2-0.29c-0.01-0.03-0.02-0.05-0.06-0.12
		c0.09,0.06,0.15,0.08,0.2,0.12c0.18,0.14,0.16,0.33-0.04,0.41c-0.14,0.06-0.31,0.08-0.46,0.1c-0.77,0.09-1.54,0.07-2.31-0.01
		c0-0.02,0-0.04,0-0.06c0.42-0.03,0.84-0.07,1.28-0.1c0-0.29,0-0.59,0-0.89c0-0.03-0.02-0.06-0.05-0.09
		c-0.08-0.09-0.17-0.18-0.23-0.31c-0.1,0-0.2,0-0.3-0.02c-0.21-0.02-0.32-0.14-0.27-0.35c0.03-0.15,0.1-0.29,0.18-0.42
		c0.11-0.17,0.24-0.32,0.38-0.46c0.24-0.25,0.48-0.26,0.71,0c0.19,0.21,0.37,0.43,0.5,0.68c0.19,0.35,0.05,0.55-0.34,0.56
		c-0.11,0-0.2,0-0.22,0.14c0,0.01-0.01,0.03-0.02,0.03c-0.26,0.17-0.17,0.43-0.18,0.67C10.09,12.24,10.09,12.39,10.09,12.51z"/>
	<path class="st0" d="M10.89,13.2c-0.42,0.5-1.12,0.5-1.63,0c0.29,0,0.55,0,0.81,0C10.33,13.2,10.59,13.2,10.89,13.2z"/>
</g>
</svg>
