<?xml version="1.0" encoding="utf-8"?>
<!-- Generator: Adobe Illustrator 28.0.0, SVG Export Plug-In . SVG Version: 6.00 Build 0)  -->
<svg version="1.1" id="Capa_1" xmlns="http://www.w3.org/2000/svg" xmlns:xlink="http://www.w3.org/1999/xlink" x="0px" y="0px"
	width="20" height="20" viewBox="0 0 20 20" style="enable-background:new 0 0 20 20;" xml:space="preserve">
<style type="text/css">
	.st0{fill:#FFFFFF;}
</style>
<path class="st0" d="M10,2c1.38,0.02,2.66,0.37,3.82,1.13c1.25,0.82,2.06,1.96,2.4,3.41c0.15,0.65,0.2,1.3,0.16,1.96
	c-0.04,0.72-0.19,1.42-0.4,2.1c-0.25,0.81-0.59,1.59-0.99,2.34c-0.66,1.23-1.46,2.37-2.42,3.39c-0.35,0.37-0.73,0.72-1.15,1.03
	c-0.29,0.21-0.59,0.4-0.93,0.53c-0.13,0.05-0.27,0.09-0.41,0.1c-0.21,0.02-0.41-0.03-0.6-0.1c-0.32-0.12-0.61-0.3-0.89-0.5
	c-0.41-0.29-0.78-0.63-1.12-0.99c-0.75-0.78-1.4-1.64-1.97-2.56c-0.54-0.87-0.99-1.78-1.34-2.74c-0.19-0.52-0.34-1.05-0.44-1.59
	C3.62,8.93,3.57,8.33,3.6,7.73c0.04-0.71,0.17-1.4,0.44-2.05c0.35-0.85,0.88-1.56,1.58-2.14C6.21,3.05,6.86,2.7,7.56,2.44
	c0.46-0.17,0.92-0.28,1.4-0.36C9.31,2.03,9.65,2,10,2z M10.36,14.03c0.02,0,0.04,0,0.05,0c0.45,0,0.89-0.04,1.33-0.13
	c0.54-0.11,1.06-0.29,1.55-0.55c0.58-0.31,1.07-0.72,1.47-1.24c0.39-0.51,0.67-1.07,0.85-1.69c0.17-0.59,0.25-1.18,0.26-1.79
	c0-0.04,0-0.08,0-0.12c-0.02,0-0.03,0-0.04,0c-0.34,0-0.68,0.03-1.01,0.09c-0.59,0.1-1.16,0.28-1.69,0.56
	c-0.66,0.35-1.22,0.81-1.67,1.4c-0.45,0.6-0.75,1.27-0.93,2c-0.08,0.33-0.13,0.66-0.15,0.99C10.37,13.7,10.37,13.86,10.36,14.03z
	 M4.24,8.51c0,0.01,0,0.02,0,0.03c0,0.41,0.03,0.81,0.1,1.22c0.1,0.57,0.27,1.12,0.54,1.63c0.37,0.71,0.88,1.3,1.55,1.75
	c0.62,0.42,1.31,0.67,2.04,0.79c0.29,0.05,0.59,0.08,0.89,0.09c0.09,0,0.19,0,0.28,0c0-0.02,0-0.03,0-0.04
	c0-0.35-0.03-0.7-0.09-1.04c-0.08-0.5-0.22-0.98-0.43-1.45c-0.33-0.73-0.8-1.34-1.42-1.84c-0.61-0.49-1.3-0.81-2.06-0.99
	C5.28,8.58,4.92,8.53,4.55,8.51C4.45,8.51,4.35,8.51,4.24,8.51z"/>
</svg>
