<?xml version="1.0" encoding="utf-8"?>
<!-- Generator: Adobe Illustrator 28.0.0, SVG Export Plug-In . SVG Version: 6.00 Build 0)  -->
<svg version="1.1" id="Capa_1" xmlns="http://www.w3.org/2000/svg" xmlns:xlink="http://www.w3.org/1999/xlink" x="0px" y="0px"
	 viewBox="0 0 512 218" style="enable-background:new 0 0 512 218;" xml:space="preserve">
<style type="text/css">
	.st0{fill:#FFFFFF;}
</style>
<g>
	<g>
		<path class="st0" d="M87.2,79.99c4.05-7.36,10.09-12.28,18.25-14.97c-4.89-0.8-11.94,2.35-16.77,7.34
			c-4.44,4.58-7.22,10.17-9.7,16.33c-0.38-2.67-0.7-4.98-1.02-7.29c-0.16-0.04-0.31-0.08-0.47-0.12c-0.43,0.83-1.04,1.62-1.26,2.5
			c-0.85,3.53-1.55,7.09-2.36,10.62c-0.11,0.47-0.45,0.88-0.69,1.31c-0.25-0.42-0.63-0.81-0.73-1.27
			c-0.76-3.42-1.43-6.86-2.23-10.27c-0.24-1-0.83-1.92-1.26-2.87c-0.18,0.01-0.36,0.01-0.55,0.02c-0.34,2.33-0.69,4.67-1.05,7.17
			c-1.12-2.44-2.11-4.79-3.26-7.07c-2.37-4.7-5.31-8.97-9.58-12.17c-4.04-3.02-8.61-4.34-13.95-4.49
			c11.5,5.94,16.39,10.02,18.36,15.02c-3.21-1.14-6.53-2.56-9.98-3.48c-4.86-1.3-9.81-1.41-14.68,0.16
			c-5.81,1.88-9.23,6.78-8.74,12.45c7.75-8.09,26.35-7.74,29.84,0.69c-2.33-0.51-4.61-1.15-6.94-1.48
			c-6.7-0.95-12.33,1.39-17.18,5.9c-4.25,3.94-7.27,8.78-10.06,13.79c-0.33,0.59-0.67,1.17-1.39,1.72c-0.1-1.59-0.3-3.17-0.29-4.76
			c0.07-22.15,4.45-43.27,15.67-62.58c5.22-8.98,12.51-16.12,22.22-20.21c15.17-6.39,29.14-3.64,41.77,6.49
			c9.61,7.7,15.46,18.03,19.51,29.45c4.88,13.74,7.81,27.89,8.2,42.5c0.08,3.03-0.16,6.07-0.25,9.11c-0.16,0.02-0.31,0.04-0.47,0.06
			c-0.8-1.4-1.49-2.89-2.43-4.18c-2.68-3.7-5.15-7.63-8.29-10.91c-6.17-6.43-13.78-8.07-22.29-5.37c-0.69,0.22-1.4,0.4-2.52,0.71
			c2.31-4.02,5.62-5.89,9.58-6.5c7.69-1.19,14.68,0.42,20.56,5.79c0.82-6-3.38-11.52-10.1-13.04c-7.63-1.72-14.82-0.2-21.68,3.27
			c-0.5,0.25-0.99,0.52-1.49,0.78C87.46,80.14,87.39,80.08,87.2,79.99z"/>
		<path class="st0" d="M120.23,127.7c-0.47,8.7-3.11,16.59-7.02,24.17c-3.53,6.83-6.36,13.92-7.01,21.72
			c-1.29-4.07-1.58-8.21-1.19-12.42c0.68-7.25,3.42-13.97,5.28-20.93c3.28-12.26,4.17-24.59,0.57-36.97
			c-0.35-1.2-0.78-2.38-1.23-3.55c-0.43-1.1-0.94-2.16-1.45-3.33c11.96,5.97,19.22,24.84,14.74,38.86
			C121.95,132.53,121.09,130.11,120.23,127.7z"/>
		<path class="st0" d="M40.12,173.55c-0.79-8.94-4.45-16.9-8.38-24.79c-3.64-7.31-4.27-9.86-5.64-21.06
			c-0.85,2.39-1.71,4.78-2.6,7.28c-4.35-12.36-0.09-27.7,14.47-38.68c-0.98,2.84-2.15,5.59-2.88,8.44
			c-3.41,13.23-1.97,26.22,1.93,39.14c1.71,5.68,3.09,11.49,4.22,17.32C42.01,165.3,41.37,169.46,40.12,173.55z"/>
		<path class="st0" d="M68.05,152.03c3.44,0,6.87,0,10.43,0c0,2.8,0.08,5.48-0.03,8.15c-0.09,2.3,0.23,4.31,1.54,6.37
			c2.47,3.89,2.24,8.26,1.28,12.58c-0.35,1.58-0.9,3.12-1.72,4.69c-1.16-4.18-2.33-8.35-3.59-12.89
			c-5.93,9.82-3.69,19.24,0.38,28.93c-3.47-1.15-5.68-3.17-7.24-5.9c-2.65-4.64-3.68-9.82-2.84-14.92
			c1.45-8.79,1.55-17.6,1.63-26.44C67.9,152.43,67.98,152.26,68.05,152.03z"/>
		<path class="st0" d="M82.99,126.52c6.93-4.52,13.51-2.79,16.66,2.96c2.91,5.31,3.47,11.07,3.06,16.98
			c-0.45,6.48-3.17,12.17-6.03,17.86c-2.3,4.57-4.44,9.25-6.25,14.03c-0.89,2.35-0.86,5.04-1.61,7.71c-0.44-2.1-1.06-4.18-1.28-6.31
			c-0.42-4.06,0.6-7.97,1.71-11.84c1.64-5.72,3.58-11.4,3.58-17.44c0-3.22,0.31-6.06,2.38-8.89c2.32-3.17,2.3-7.02,0.02-10.45
			c-2.46-3.71-6.2-4.88-10.45-4.8C84.24,126.34,83.69,126.44,82.99,126.52z"/>
		<path class="st0" d="M53.28,116.36c0.63-1.83,1.21-3.54,1.85-5.42c-5.47,0-10.45,0-15.42,0c1.42-9.43,11.03-17.83,19.7-17.13
			c3.56,0.29,6.38,1.9,7.83,5.29c1.46,3.42,0.31,6.4-2.03,8.98c-0.96,1.05-2.12,1.97-3.3,2.76
			C59.09,112.72,56.21,114.49,53.28,116.36z"/>
		<path class="st0" d="M106.86,110.94c-5.18,0-10.1,0-15.05,0c-0.39,1.63-0.39,1.63,1.57,5.79c-4.07-2.76-7.88-5.03-11.32-7.76
			c-2.97-2.36-4.45-5.62-3.14-9.53c1.11-3.34,4.59-5.53,8.74-5.7c2.83-0.11,5.5,0.53,7.93,1.95
			C101.49,99.15,104.6,104.67,106.86,110.94z"/>
		<path class="st0" d="M56.87,186.9c0.29-8.34-3.56-15.24-7.41-22.15c-3.98-7.13-6.61-14.66-6-22.96c0.2-2.72,0.68-5.51,1.61-8.07
			c2.25-6.2,7.45-8.95,13.93-7.71c1.28,0.24,2.52,0.64,4.09,1.04c-2.07,0.4-3.85,0.56-5.5,1.1c-7.81,2.58-10.07,10.41-4.99,16.82
			c0.51,0.65,0.86,1.7,0.76,2.5c-0.75,5.97-0.21,11.68,2.28,17.28c2.3,5.18,3.95,10.62,3.15,16.42c-0.27,1.93-0.87,3.82-1.31,5.73
			C57.27,186.9,57.07,186.9,56.87,186.9z"/>
		<path class="st0" d="M74.16,135.88c3.79-0.09,7.4-0.24,11-0.24c2.32,0,3-0.88,2.15-3.11c-0.1-0.27-0.24-0.53-0.59-1.27
			c1.01,0.6,1.62,0.88,2.14,1.28c1.88,1.47,1.74,3.51-0.48,4.41c-1.54,0.62-3.26,0.89-4.93,1.08c-8.2,0.94-16.39,0.8-24.58-0.09
			c-0.02-0.21-0.03-0.41-0.05-0.62c4.47-0.36,8.93-0.72,13.59-1.09c0-3.1,0.01-6.29-0.02-9.47c0-0.31-0.26-0.65-0.49-0.91
			c-0.87-0.99-1.77-1.96-2.42-3.25c-1.06-0.05-2.13-0.05-3.18-0.17c-2.24-0.26-3.37-1.53-2.91-3.71c0.33-1.55,1.03-3.1,1.9-4.43
			c1.17-1.77,2.59-3.39,4.05-4.94c2.5-2.66,5.13-2.74,7.51-0.04c1.98,2.24,3.93,4.6,5.35,7.21c2.03,3.73,0.58,5.89-3.66,5.97
			c-1.14,0.02-2.13,0.04-2.3,1.47c-0.01,0.12-0.08,0.27-0.17,0.33c-2.74,1.8-1.85,4.59-1.93,7.1
			C74.11,132.99,74.16,134.61,74.16,135.88z"/>
		<path class="st0" d="M82.65,143.2c-4.51,5.32-11.91,5.34-17.33,0c3.08,0,5.83,0,8.59,0C76.71,143.2,79.51,143.2,82.65,143.2z"/>
	</g>
	<g>
		<path class="st0" d="M158.54,21.98c0-1.78,1.05-2.83,3.14-3.14c1.32-0.23,4.04-0.35,8.15-0.35c3.88,0,6.64,0.12,8.27,0.35
			c1.71,0.16,2.56,1.24,2.56,3.26c0,0.08,0,0.16,0,0.23c-0.78,13.74-1.17,21.66-1.17,23.75c0.08,8.07,0.85,12.11,2.33,12.11
			c1.01,0,1.82-2.13,2.45-6.4c0-0.54,0.08-1.44,0.23-2.68l0.23-1.51c0.15-1.24,0.39-3.82,0.7-7.74c0.31-3.92,0.54-6.58,0.7-7.98
			c0.7-6.75,2.6-10.13,5.71-10.13c1.63,0,2.93,0.76,3.9,2.27c0.97,1.51,1.69,4.13,2.15,7.86c0.08,0.47,0.27,2.76,0.58,6.87
			c0.31,4.12,0.54,6.95,0.7,8.5c0.47,4.04,0.91,6.91,1.34,8.62c0.43,1.71,1.03,2.56,1.8,2.56c1.47,0,2.21-4.04,2.21-12.11
			c0-4.81-0.31-12.81-0.93-23.99c0-0.23,0-0.47,0-0.7c0-1.71,0.81-2.64,2.44-2.79c1.55-0.23,4.23-0.35,8.04-0.35
			c4.04,0,6.87,0.12,8.5,0.35c2.02,0.23,3.03,1.28,3.03,3.14c-0.39,23.83-2.02,49.02-4.89,75.57c-0.23,1.63-1.28,2.56-3.14,2.79
			c-2.41,0.23-5.12,0.35-8.15,0.35c-3.88,0-6.44-0.12-7.69-0.35c-2.1-0.23-3.3-1.59-3.61-4.08c-0.39-4.19-1.17-9.32-2.33-15.37
			c-1.09-6.99-2.33-10.48-3.73-10.48c-1.24,0-2.56,3.61-3.96,10.83c-0.16,1.16-0.85,6.17-2.1,15.02c-0.31,2.33-1.55,3.69-3.73,4.08
			c-1.16,0.23-3.61,0.35-7.34,0.35c-4.04,0-6.83-0.12-8.38-0.35c-2.02-0.47-3.07-1.4-3.14-2.79
			C160.55,72.79,158.92,47.6,158.54,21.98z"/>
		<path class="st0" d="M240.05,29.9c4.58-7.76,10.91-11.68,18.98-11.76c8.07,0,14.38,3.92,18.92,11.76
			c4.54,7.84,6.81,19.06,6.81,33.65c0,13.74-2.17,23.41-6.52,28.99c-4.35,5.67-10.75,8.5-19.21,8.5c-8.46,0-14.89-2.81-19.27-8.44
			c-4.39-5.63-6.58-15.31-6.58-29.05C233.18,48.96,235.47,37.74,240.05,29.9z M254.25,63.21c0,4.66,0.37,7.9,1.11,9.72
			c0.74,1.83,1.96,2.74,3.67,2.74c1.63,0,2.81-0.91,3.55-2.74c0.74-1.82,1.11-5.07,1.11-9.72c0-13.12-1.55-19.68-4.66-19.68
			c-1.55,0-2.74,1.86-3.55,5.59S254.25,57.54,254.25,63.21z"/>
		<path class="st0" d="M299.55,29.9c4.58-7.76,10.91-11.68,18.98-11.76c8.07,0,14.38,3.92,18.92,11.76
			c4.54,7.84,6.81,19.06,6.81,33.65c0,13.74-2.17,23.41-6.52,28.99c-4.35,5.67-10.75,8.5-19.21,8.5c-8.46,0-14.89-2.81-19.27-8.44
			c-4.39-5.63-6.58-15.31-6.58-29.05C292.68,48.96,294.97,37.74,299.55,29.9z M313.76,63.21c0,4.66,0.37,7.9,1.11,9.72
			c0.74,1.83,1.96,2.74,3.67,2.74c1.63,0,2.81-0.91,3.55-2.74c0.74-1.82,1.11-5.07,1.11-9.72c0-13.12-1.55-19.68-4.66-19.68
			c-1.55,0-2.74,1.86-3.55,5.59C314.16,52.84,313.76,57.54,313.76,63.21z"/>
		<path class="st0" d="M352.53,97.09c0.15-31.83,0.97-56.98,2.44-75.46c0.08-1.4,1.09-2.33,3.03-2.79c1.86-0.23,4.66-0.35,8.38-0.35
			c2.64,0,4.89,0.12,6.75,0.35c2.02,0.39,3.03,1.28,3.03,2.68c0,0.16,0,0.35,0,0.58c-1.17,9.16-1.75,15.99-1.75,20.49
			c0,2.64,0.35,3.96,1.05,3.96c1.24,0,2.35-2.91,3.32-8.73c0.97-5.82,1.53-11.18,1.69-16.07c0-1.47,0.93-2.44,2.79-2.91
			c2.02-0.23,4.7-0.35,8.04-0.35c3.57,0,6.48,0.12,8.73,0.35c0.93,0.16,1.69,0.54,2.27,1.16c0.58,0.62,0.87,1.32,0.87,2.1
			c0,0.16,0,0.27,0,0.35c-0.78,17.7-7.1,27.75-18.98,30.16c-0.7,0.16-1.05,0.51-1.05,1.05c0,0.54,0.35,0.89,1.05,1.05
			c6.6,1.48,11.63,5.43,15.08,11.88c3.45,6.44,5.65,16.5,6.58,30.16c0,0.08,0,0.19,0,0.35c0,0.78-0.29,1.48-0.87,2.1
			c-0.58,0.62-1.34,1.01-2.27,1.16c-1.48,0.23-4.42,0.35-8.85,0.35c-4.35,0-7.69-0.12-10.01-0.35c-2.02-0.31-3.03-1.4-3.03-3.26
			c0.15-2.41,0.23-4.85,0.23-7.34c0-4.66-0.43-10.05-1.28-16.19c-0.86-6.13-2.21-9.2-4.08-9.2c-1.24,0-1.86,2.17-1.86,6.52
			c0,8.23,0.7,16.96,2.1,26.2c0,0.08,0,0.16,0,0.23c0,0.7-0.27,1.34-0.82,1.92c-0.54,0.58-1.28,0.95-2.21,1.11
			c-2.1,0.23-4.93,0.35-8.5,0.35c-4.04,0-6.83-0.12-8.38-0.35c-0.93-0.15-1.75-0.54-2.45-1.16
			C352.88,98.57,352.53,97.87,352.53,97.09z"/>
		<path class="st0" d="M414.13,97.09c0-31.05,0.58-56.17,1.75-75.34c0.08-1.55,1.01-2.52,2.79-2.91c1.63-0.23,4.08-0.35,7.34-0.35
			c3.03,0,5.47,0.12,7.34,0.35c1.63,0.39,2.56,1.36,2.79,2.91c1.09,17.86,1.63,42.97,1.63,75.34c0,1.79-1.05,2.87-3.14,3.26
			c-2.1,0.23-4.97,0.35-8.62,0.35c-3.65,0-6.56-0.12-8.73-0.35C415.18,99.89,414.13,98.8,414.13,97.09z"/>
		<path class="st0" d="M446.74,96.98c0.31-35.24,1.12-60.44,2.44-75.57c0.16-1.55,1.17-2.41,3.03-2.56
			c2.79-0.23,8.58-0.35,17.35-0.35c7.06,0,12.58,0.12,16.54,0.35c1.86,0.16,2.87,1.09,3.03,2.79c0.23,3.73,0.47,11.22,0.7,22.47
			c0,0.08,0,0.16,0,0.23c0,1.09-0.29,1.77-0.87,2.04c-0.58,0.27-1.07,0.41-1.46,0.41c-0.62,0-1.32-0.31-2.1-0.93
			c-4.19-3.18-8.19-4.77-11.99-4.77c-1.94,0-3.34,0.54-4.19,1.63c-0.85,1.09-1.28,2.29-1.28,3.61v0.58c0,3.11,2.06,4.66,6.17,4.66
			c1.09,0,2.54-0.12,4.37-0.35c1.82-0.23,3.09-0.39,3.78-0.47c0.08,0,0.15,0,0.23,0c0.78,0,1.47,0.29,2.1,0.87
			c0.62,0.58,0.93,1.3,0.93,2.15l-0.12,9.2c0,1.16-0.27,1.88-0.82,2.15c-0.54,0.27-0.93,0.41-1.16,0.41c-0.54,0-1.05-0.27-1.51-0.82
			c-3.26-2.48-5.94-3.73-8.03-3.73c-3.96,0.16-5.94,2.49-5.94,6.99v1.75c0,5.59,2.29,8.38,6.87,8.38c2.64,0,4.85-0.54,6.64-1.63
			c1.78-1.09,3.53-3.18,5.24-6.29c0.47-0.85,1.12-1.28,1.98-1.28c0.23,0,0.72,0.08,1.46,0.23c0.74,0.16,1.14,1.01,1.22,2.56
			c0.62,9.39,1.01,17.86,1.17,25.39c0,1.86-0.97,2.95-2.91,3.26c-2.33,0.23-9.39,0.35-21.19,0.35c-10.09,0-16.3-0.12-18.63-0.35
			c-0.85-0.15-1.57-0.54-2.15-1.16C447.03,98.57,446.74,97.83,446.74,96.98z"/>
		<path class="st0" d="M161.45,120.08c0.16-1.78,1.09-2.76,2.79-2.91c5.36-0.47,11.99-0.7,19.91-0.7c6.91,0,12.32,1.73,16.24,5.18
			c3.92,3.45,5.88,8.79,5.88,16.01c0,8.38-2.29,15.25-6.87,20.61c-4.58,5.36-10.36,8.46-17.35,9.32c-1.32,0.23-1.98,1.79-1.98,4.66
			c0,2.72,0.15,5.2,0.47,7.45c0.31,2.25,0.8,5.05,1.46,8.38c0.66,3.34,1.14,5.82,1.46,7.45c0,0.16,0,0.31,0,0.47
			c0,0.62-0.23,1.24-0.7,1.86c-0.47,0.62-1.13,1.01-1.98,1.16c-1.55,0.23-4.7,0.35-9.43,0.35c-4.5,0-7.61-0.12-9.32-0.35
			c-1.94-0.39-2.91-1.36-2.91-2.91C159.27,164.45,160.05,139.11,161.45,120.08z M180.89,155.72c0.23,0.23,0.43,0.35,0.58,0.35
			c0.15,0,0.27-0.04,0.35-0.12c1.47-0.47,2.62-1.53,3.44-3.2c0.81-1.67,1.22-3.51,1.22-5.53c0-4.58-1.63-6.87-4.89-6.87h-0.12
			c-0.78,0-1.17,0.35-1.17,1.05v13.39C180.31,155.18,180.5,155.48,180.89,155.72z"/>
		<path class="st0" d="M214.66,195.66c0.31-35.24,1.12-60.44,2.44-75.57c0.16-1.55,1.17-2.41,3.03-2.56
			c2.79-0.23,8.58-0.35,17.35-0.35c7.06,0,12.58,0.12,16.54,0.35c1.86,0.16,2.87,1.09,3.03,2.79c0.23,3.73,0.47,11.22,0.7,22.47
			c0,0.08,0,0.16,0,0.23c0,1.09-0.29,1.77-0.87,2.04c-0.58,0.27-1.07,0.41-1.46,0.41c-0.62,0-1.32-0.31-2.1-0.93
			c-4.19-3.18-8.19-4.77-11.99-4.77c-1.94,0-3.34,0.54-4.19,1.63c-0.85,1.09-1.28,2.29-1.28,3.61v0.58c0,3.11,2.06,4.66,6.17,4.66
			c1.09,0,2.54-0.12,4.37-0.35c1.82-0.23,3.09-0.39,3.78-0.47c0.08,0,0.15,0,0.23,0c0.78,0,1.47,0.29,2.1,0.87
			c0.62,0.58,0.93,1.3,0.93,2.15l-0.12,9.2c0,1.16-0.27,1.88-0.82,2.15c-0.54,0.27-0.93,0.41-1.16,0.41c-0.54,0-1.05-0.27-1.51-0.82
			c-3.26-2.48-5.94-3.73-8.03-3.73c-3.96,0.16-5.94,2.49-5.94,6.99v1.75c0,5.59,2.29,8.38,6.87,8.38c2.64,0,4.85-0.54,6.64-1.63
			c1.78-1.09,3.53-3.18,5.24-6.29c0.47-0.85,1.12-1.28,1.98-1.28c0.23,0,0.72,0.08,1.46,0.23c0.74,0.16,1.14,1.01,1.22,2.56
			c0.62,9.39,1.01,17.86,1.17,25.39c0,1.86-0.97,2.95-2.91,3.26c-2.33,0.23-9.39,0.35-21.19,0.35c-10.09,0-16.3-0.12-18.63-0.35
			c-0.85-0.15-1.57-0.54-2.15-1.16C214.95,197.25,214.66,196.51,214.66,195.66z"/>
		<path class="st0" d="M271.6,120.32c0.16-1.71,1.2-2.64,3.14-2.79c3.18-0.23,8.07-0.35,14.67-0.35c9.39,0,16.83,3.92,22.3,11.76
			c5.47,7.84,8.21,19.02,8.21,33.54c0,13.59-2.33,23.19-6.99,28.82c-4.66,5.63-11.84,8.44-21.54,8.44c-8.31,0-14.67-0.23-19.1-0.7
			c-2.02-0.31-3.03-1.4-3.03-3.26C269.27,164.72,270.05,139.57,271.6,120.32z M290.35,171.44c0,1.32,0.58,1.98,1.75,1.98h0.35
			c1.94,0,3.57-0.93,4.89-2.79c1.32-1.86,1.98-4.58,1.98-8.15c0-7.06-0.62-12.44-1.86-16.13c-1.24-3.69-2.95-5.53-5.12-5.53h-0.23
			c-1.16,0-1.75,0.58-1.75,1.75c-0.08,4.81-0.12,9.63-0.12,14.44C290.23,161.81,290.27,166.63,290.35,171.44z"/>
		<path class="st0" d="M328.2,195.78c0-31.05,0.58-56.17,1.75-75.34c0.08-1.55,1.01-2.52,2.79-2.91c1.63-0.23,4.08-0.35,7.34-0.35
			c3.03,0,5.47,0.12,7.34,0.35c1.63,0.39,2.56,1.36,2.79,2.91c1.09,17.86,1.63,42.97,1.63,75.34c0,1.79-1.05,2.87-3.14,3.26
			c-2.1,0.23-4.97,0.35-8.62,0.35c-3.65,0-6.56-0.12-8.73-0.35C329.24,198.57,328.2,197.48,328.2,195.78z"/>
		<path class="st0" d="M359.75,195.78c0.7-13.51,2.1-27.21,4.19-41.11c2.1-13.9,4.35-25.5,6.75-34.82c0.23-1.32,1.12-2.1,2.68-2.33
			c2.02-0.23,6.09-0.35,12.23-0.35c6.13,0,10.25,0.12,12.34,0.35c1.47,0.23,2.41,1.01,2.79,2.33c2.33,9.01,4.52,20.5,6.58,34.47
			c2.06,13.97,3.47,27.79,4.25,41.45c0,0.08,0,0.19,0,0.35c0,0.7-0.25,1.32-0.76,1.86c-0.51,0.54-1.18,0.89-2.04,1.05
			c-2.33,0.23-5.16,0.35-8.5,0.35c-3.26,0-6.02-0.12-8.27-0.35c-0.86-0.15-1.55-0.56-2.1-1.22c-0.54-0.66-0.82-1.38-0.82-2.15
			c0-0.16,0-0.27,0-0.35c0.54-4.04,0.82-8.77,0.82-14.21c0-1.63-0.41-2.91-1.22-3.84c-0.82-0.93-1.77-1.4-2.85-1.4h-0.35
			c-1.09,0-2.04,0.49-2.85,1.46c-0.82,0.97-1.26,2.23-1.34,3.78c0,5.43,0.27,10.21,0.82,14.32c0,0.08,0,0.19,0,0.35
			c0,0.78-0.25,1.48-0.76,2.1c-0.51,0.62-1.22,1.01-2.15,1.16c-2.25,0.23-5.16,0.35-8.73,0.35c-1.24,0-3.84-0.12-7.8-0.35
			c-0.85-0.08-1.55-0.41-2.1-0.99c-0.54-0.58-0.82-1.22-0.82-1.92C359.75,195.97,359.75,195.85,359.75,195.78z M385.49,164.68h0.47
			c1.47,0,2.21-0.7,2.21-2.1c0-0.16,0-0.31,0-0.47c-0.31-7.61-0.78-14.28-1.4-20.03c-0.16-1.16-0.35-1.9-0.58-2.21
			c-0.23-0.31-0.43-0.47-0.58-0.47c-0.16,0-0.35,0.16-0.58,0.47c-0.23,0.31-0.43,1.05-0.58,2.21c-0.62,6.99-1.01,13.66-1.17,20.03
			c0,0.23,0,0.43,0,0.58C383.27,164.03,384.01,164.68,385.49,164.68z"/>
	</g>
</g>
</svg>
